<!--?xml version="1.0" encoding="utf-8"?-->
<!-- Generator: Adobe Illustrator 18.1.1, SVG Export Plug-In . SVG Version: 6.00 Build 0)  -->

<svg version="1.1" id="_x32_" xmlns="http://www.w3.org/2000/svg" xmlns:xlink="http://www.w3.org/1999/xlink" x="0px" y="0px" viewBox="0 0 512 512" style="width: 256px; height: 256px; opacity: 1;" xml:space="preserve">
<style type="text/css">
	.st0{fill:#4B4B4B;}
</style>
<g>
	<path class="st0" d="M149.193,103.525c15.995,0,28.964-12.97,28.964-28.973V28.964C178.157,12.97,165.188,0,149.193,0
		c-16.002,0-28.973,12.97-28.973,28.964v45.588C120.22,90.556,133.191,103.525,149.193,103.525z" style="fill: rgb(18, 127, 164);"></path>
	<path class="st0" d="M362.816,103.525c15.994,0,28.964-12.97,28.964-28.973V28.964C391.78,12.97,378.81,0,362.816,0
		c-16.003,0-28.973,12.97-28.973,28.964v45.588C333.843,90.556,346.813,103.525,362.816,103.525z" style="fill: rgb(18, 127, 164);"></path>
	<path class="st0" d="M435.164,41.287h-17.925v33.265c0,30.017-24.414,54.432-54.422,54.432c-30.018,0-54.432-24.415-54.432-54.432
		V41.287H203.616v33.265c0,30.017-24.415,54.432-54.423,54.432c-30.016,0-54.432-24.415-54.432-54.432V41.287H76.836
		c-38.528,0-69.763,31.235-69.763,69.763v331.187C7.073,480.765,38.309,512,76.836,512h358.328
		c38.528,0,69.763-31.235,69.763-69.763V111.05C504.927,72.522,473.692,41.287,435.164,41.287z M470.982,442.237
		c0,19.748-16.069,35.818-35.818,35.818H76.836c-19.748,0-35.818-16.07-35.818-35.818V155.138h429.964V442.237z" style="fill: rgb(18, 127, 164);"></path>
	<rect x="175.862" y="384.002" class="st0" width="62.859" height="62.859" style="fill: rgb(18, 127, 164);"></rect>
	<rect x="175.862" y="286.584" class="st0" width="62.859" height="62.859" style="fill: rgb(18, 127, 164);"></rect>
	<rect x="78.453" y="384.002" class="st0" width="62.851" height="62.859" style="fill: rgb(18, 127, 164);"></rect>
	<rect x="78.453" y="286.584" class="st0" width="62.851" height="62.859" style="fill: rgb(18, 127, 164);"></rect>
	<rect x="370.697" y="189.175" class="st0" width="62.851" height="62.851" style="fill: rgb(18, 127, 164);"></rect>
	<rect x="273.28" y="189.175" class="st0" width="62.859" height="62.851" style="fill: rgb(18, 127, 164);"></rect>
	<rect x="273.28" y="286.584" class="st0" width="62.859" height="62.859" style="fill: rgb(18, 127, 164);"></rect>
	<rect x="370.697" y="384.002" class="st0" width="62.851" height="62.859" style="fill: rgb(18, 127, 164);"></rect>
	<rect x="370.697" y="286.584" class="st0" width="62.851" height="62.859" style="fill: rgb(18, 127, 164);"></rect>
	<rect x="273.28" y="384.002" class="st0" width="62.859" height="62.859" style="fill: rgb(18, 127, 164);"></rect>
	<rect x="175.862" y="189.175" class="st0" width="62.859" height="62.851" style="fill: rgb(18, 127, 164);"></rect>
	<rect x="78.453" y="189.175" class="st0" width="62.851" height="62.851" style="fill: rgb(18, 127, 164);"></rect>
</g>
</svg>
