<!--?xml version="1.0" encoding="utf-8"?-->
<!-- Generator: Adobe Illustrator 18.1.1, SVG Export Plug-In . SVG Version: 6.00 Build 0)  -->

<svg version="1.1" id="_x32_" xmlns="http://www.w3.org/2000/svg" xmlns:xlink="http://www.w3.org/1999/xlink" x="0px" y="0px" viewBox="0 0 512 512" style="width: 256px; height: 256px; opacity: 1;" xml:space="preserve">
<style type="text/css">
	.st0{fill:#4B4B4B;}
</style>
<g>
	<path class="st0" d="M324.288,389.972c-12.581,0-22.774,10.193-22.774,22.757c0,12.564,10.193,22.758,22.774,22.758
		c12.564,0,22.757-10.193,22.757-22.758C347.045,400.165,336.852,389.972,324.288,389.972z" style="fill: rgb(45, 45, 45);"></path>
	<path class="st0" d="M400.592,389.972c-12.58,0-22.773,10.193-22.773,22.757c0,12.564,10.194,22.758,22.773,22.758
		c12.564,0,22.758-10.193,22.758-22.758C423.35,400.165,413.156,389.972,400.592,389.972z" style="fill: rgb(45, 45, 45);"></path>
	<path class="st0" d="M475.735,323.135l-82.965-68.11c-15.386-12.613-34.676-19.524-54.595-19.524h-26.644l-23.128,25.709
		c-8.258,9.161-20.064,14.419-32.403,14.419c-12.338,0-24.144-5.258-32.402-14.419l-23.128-25.709h-26.66
		c-19.902,0-39.192,6.911-54.579,19.524l-82.964,68.11C18.491,335.989,6.879,356.852,6.879,380.48v60.708
		c0.016,39.12,31.693,70.804,70.804,70.812H256H434.3c39.112-0.008,70.82-31.693,70.82-70.812V380.48
		C505.121,356.852,493.509,335.989,475.735,323.135z M464.654,441.188c0,8.444-3.371,15.903-8.886,21.459
		c-5.548,5.516-13.016,8.879-21.468,8.887H77.683c-8.435-0.008-15.903-3.371-21.451-8.887c-5.532-5.556-8.886-13.015-8.886-21.459
		V380.48c0-8.443,3.354-15.91,8.886-21.45c5.548-5.524,13.016-8.887,21.451-8.895H434.3c8.452,0.008,15.919,3.371,21.468,8.895
		c5.516,5.54,8.886,13.008,8.886,21.45V441.188z" style="fill: rgb(45, 45, 45);"></path>
	<path class="st0" d="M242.017,244.637c3.564,3.96,8.661,6.218,13.983,6.218c5.339,0,10.42-2.258,13.984-6.218l71.53-79.489
		c4.984-5.516,6.226-13.451,3.21-20.241c-3.016-6.782-9.758-11.153-17.177-11.153h-33.612V18.814C293.934,8.428,285.499,0,275.112,0
		h-38.224c-10.387,0-18.806,8.428-18.806,18.814v114.94H184.47c-7.419,0-14.16,4.371-17.192,11.153
		c-3.016,6.79-1.758,14.725,3.21,20.241L242.017,244.637z" style="fill: rgb(45, 45, 45);"></path>
</g>
</svg>
