<!--?xml version="1.0" encoding="utf-8"?-->
<!-- Generator: Adobe Illustrator 15.1.0, SVG Export Plug-In . SVG Version: 6.00 Build 0)  -->

<svg version="1.1" id="_x32_" xmlns="http://www.w3.org/2000/svg" xmlns:xlink="http://www.w3.org/1999/xlink" x="0px" y="0px" width="512px" height="512px" viewBox="0 0 512 512" style="width: 256px; height: 256px; opacity: 1;" xml:space="preserve">
<style type="text/css">

	.st0{fill:#4B4B4B;}

</style>
<g>
	<path class="st0" d="M461.344,197.344c-15.813-15.875-37.984-25.781-62.156-25.75h-8.953v-37.375
		c0.016-36.969-15.078-70.719-39.328-94.906C326.703,15.063,292.969-0.016,256,0c-36.969-0.016-70.719,15.063-94.922,39.313
		C136.844,63.5,121.75,97.25,121.766,134.219v37.375h-8.969c-24.172-0.031-46.328,9.875-62.141,25.75
		c-15.859,15.813-25.766,37.969-25.75,62.156v164.594c-0.016,24.188,9.891,46.344,25.75,62.156
		c15.813,15.875,37.969,25.766,62.141,25.75h286.391c24.172,0.016,46.344-9.875,62.156-25.75
		c15.859-15.813,25.766-37.969,25.75-62.156V259.5C487.109,235.313,477.203,213.156,461.344,197.344z M179.891,134.219
		c0.016-21.094,8.469-39.938,22.297-53.813C216.047,66.594,234.891,58.125,256,58.125s39.953,8.469,53.813,22.281
		c13.828,13.875,22.281,32.719,22.297,53.813v37.375H179.891V134.219z M420.25,445.156c-5.484,5.438-12.75,8.719-21.063,8.719
		H112.797c-8.313,0-15.563-3.281-21.047-8.719c-5.438-5.469-8.703-12.75-8.719-21.063V259.5c0.016-8.328,3.281-15.594,8.719-21.063
		c5.484-5.438,12.734-8.719,21.047-8.719h286.391c8.313,0,15.578,3.281,21.063,8.719c5.422,5.469,8.703,12.734,8.719,21.063v164.594
		C428.953,432.406,425.672,439.688,420.25,445.156z" style="fill: rgb(176, 176, 176);"></path>
	<path class="st0" d="M255.984,279.969c-23.109,0-41.844,18.75-41.844,41.875c0,17.031,10.219,31.625,24.828,38.156l-9.25,60.094
		h26.266h26.297L273.016,360c14.609-6.531,24.844-21.125,24.844-38.156C297.859,298.719,279.109,279.969,255.984,279.969z" style="fill: rgb(176, 176, 176);"></path>
</g>
</svg>
