<!--?xml version="1.0" encoding="utf-8"?-->
<!-- Generator: Adobe Illustrator 18.1.1, SVG Export Plug-In . SVG Version: 6.00 Build 0)  -->

<svg version="1.1" id="_x32_" xmlns="http://www.w3.org/2000/svg" xmlns:xlink="http://www.w3.org/1999/xlink" x="0px" y="0px" viewBox="0 0 512 512" style="width: 256px; height: 256px; opacity: 1;" xml:space="preserve">
<style type="text/css">
	.st0{fill:#4B4B4B;}
</style>
<g>
	<path class="st0" d="M511.576,385.989L442.451,76.22c-3.358-15.098-11.791-28.089-23.201-37.214
		c-11.401-9.151-25.906-14.548-41.384-14.548H255.997h-121.86c-15.469,0-29.992,5.396-41.384,14.548
		C81.334,48.131,72.911,61.123,69.545,76.22L0.419,385.989c-0.491,1.936-0.415,8.212-0.415,12.382v28.774
		c0,16.628,6.792,31.835,17.694,42.703c10.876,10.902,26.092,17.703,42.72,17.694h195.578h195.596
		c16.62,0.009,31.827-6.792,42.704-17.694c10.91-10.868,17.702-26.075,17.694-42.703v-28.774
		C511.999,394.201,512.075,387.925,511.576,385.989z M60.419,453.025c-7.206,0-13.566-2.876-18.312-7.586
		c-4.711-4.737-7.578-11.097-7.586-18.294v-28.774c0.008-7.19,2.875-13.558,7.586-18.294c4.745-4.712,11.106-7.587,18.312-7.587
		h195.578h195.596c7.207,0,13.566,2.875,18.312,7.587c4.702,4.737,7.569,11.105,7.569,18.294v28.774
		c0,7.197-2.868,13.558-7.569,18.294c-4.746,4.71-11.105,7.586-18.312,7.586H255.997H60.419z M114.346,65.927
		c5.481-4.389,12.348-6.944,19.791-6.952h121.86h121.869c7.443,0.008,14.311,2.563,19.8,6.952
		c5.488,4.406,9.472,10.547,11.105,17.813l57.124,256.01c-4.602-1.116-9.38-1.776-14.303-1.776H255.997H60.419
		c-4.939,0-9.71,0.659-14.31,1.776L103.24,83.74C104.856,76.474,108.848,70.333,114.346,65.927z" style="fill: rgb(255, 255, 255);"></path>
	<circle class="st0" cx="415.072" cy="412.766" r="17.322" style="fill: rgb(255, 255, 255);"></circle>
</g>
</svg>
